<svg width="16" height="16" viewBox="0 0 16 16" fill="none" xmlns="http://www.w3.org/2000/svg">
<path d="M8 8.66667C9.10457 8.66667 10 7.77124 10 6.66667C10 5.5621 9.10457 4.66667 8 4.66667C6.89543 4.66667 6 5.5621 6 6.66667M7.87492 10.875H8.12492M7.87492 11.125H8.12492M6.26667 14H9.73333C11.2268 14 11.9735 14 12.544 13.7094C13.0457 13.4537 13.4537 13.0457 13.7094 12.544C14 11.9735 14 11.2268 14 9.73333V6.26667C14 4.77319 14 4.02646 13.7094 3.45603C13.4537 2.95426 13.0457 2.54631 12.544 2.29065C11.9735 2 11.2268 2 9.73333 2H6.26667C4.77319 2 4.02646 2 3.45603 2.29065C2.95426 2.54631 2.54631 2.95426 2.29065 3.45603C2 4.02646 2 4.77319 2 6.26667V9.73333C2 11.2268 2 11.9735 2.29065 12.544C2.54631 13.0457 2.95426 13.4537 3.45603 13.7094C4.02646 14 4.77319 14 6.26667 14ZM8.33333 11C8.33333 11.1841 8.1841 11.3333 8 11.3333C7.81591 11.3333 7.66667 11.1841 7.66667 11C7.66667 10.8159 7.81591 10.6667 8 10.6667C8.1841 10.6667 8.33333 10.8159 8.33333 11Z" stroke="currentColor" stroke-linecap="round"/>
</svg>
