<svg width="85" height="22" viewBox="0 0 85 22" fill="none" xmlns="http://www.w3.org/2000/svg">
<g clip-path="url(#clip0_24103_32)">
<path fill-rule="evenodd" clip-rule="evenodd" d="M19.4626 16.1157L20.429 16.6029L21.6827 19.0305C21.6827 19.0305 22.3856 20.2856 21.6987 21.1196C21.0119 21.9535 20.445 21.9288 20.0935 21.9288C19.7421 21.9288 18.5043 21.9453 18.5043 21.9453C18.5043 21.9453 17.53 22.0527 16.955 21.1031C16.3798 20.1534 13.4215 13.7044 13.4215 13.7044C13.4215 13.7044 12.2388 11.2215 11.0923 11.2307C9.94567 11.2401 8.70881 13.4338 8.23939 14.4511C7.76987 15.4686 5.60315 20.6399 4.64616 21.34C3.68918 22.0401 2.79541 21.8534 2.79541 21.8534L7.34985 9.89132L10.5316 6.19824L13.9392 7.59904L19.4626 16.1157Z" fill="url(#paint0_linear_24103_32)"/>
<path fill-rule="evenodd" clip-rule="evenodd" d="M19.4626 16.1157L20.429 16.6029L21.5374 18.7492C20.8129 18.407 19.2559 17.7461 17.7181 17.5744C16.5961 17.4493 15.7364 17.4543 15.1785 17.486C14.2908 15.5994 13.4215 13.7044 13.4215 13.7044C13.4215 13.7044 12.2388 11.2215 11.0923 11.2307C9.94567 11.2401 8.70881 13.4338 8.23939 14.4511C7.76988 15.4686 5.60315 20.6399 4.64617 21.34C3.68918 22.0401 2.0686 21.9853 2.0686 21.9853L7.34985 9.89132L10.5316 6.19824L13.9392 7.59904L19.4626 16.1157Z" fill="url(#paint1_linear_24103_32)"/>
<path fill-rule="evenodd" clip-rule="evenodd" d="M12.9246 4.08988L9.18467 1.2002L0.19098 19.2751C0.19098 19.2751 -0.494686 20.9668 0.732377 21.6633C1.95944 22.3598 3.25023 21.8209 3.68356 21.4297C5.34147 19.9331 11.5127 6.84457 12.9246 4.08988Z" fill="url(#paint2_linear_24103_32)"/>
<path fill-rule="evenodd" clip-rule="evenodd" d="M12.9247 4.08988L9.18473 1.2002L8.78265 2.00819C8.65642 3.17911 8.5531 5.09757 8.88567 7.07157C9.22072 9.06051 9.51699 10.1261 9.69189 10.6454C11.1233 7.76077 12.3793 5.15408 12.9247 4.08988Z" fill="#3D7B90"/>
<path fill-rule="evenodd" clip-rule="evenodd" d="M12.8834 1.5907L12.4637 0.811076C12.4637 0.811076 12.0797 0 11.105 0C10.1304 0 9.65389 0.538869 9.2413 1.13467C8.8287 1.73037 8.99225 3.23812 9.58985 4.70172C10.1873 6.16544 12.8663 11.484 12.8663 11.484C12.8663 11.484 14.0061 13.7553 15.446 14.7787C16.8858 15.8022 19.021 16.6903 19.8799 17.1471C20.7389 17.6038 21.1807 18.0944 21.1807 18.0944L12.8834 1.5907Z" fill="url(#paint3_linear_24103_32)"/>
<path d="M43.3075 18.9999H40.2626L39.4226 16.4169H34.4035L33.5845 18.9999H30.5396L35.3275 5.30785C35.5375 4.83185 35.7685 4.50285 36.0205 4.32085C36.2865 4.13885 36.6085 4.04785 36.9865 4.04785C37.3645 4.04785 37.6655 4.13185 37.8895 4.29985C38.1275 4.46785 38.3376 4.80385 38.5196 5.30785L43.3075 18.9999ZM38.7505 13.9599L36.9865 8.03785L35.1385 13.9599H38.7505ZM56.3422 4.04785V13.8759C56.3422 15.4999 55.7892 16.7809 54.6832 17.7189C53.5912 18.6569 52.2402 19.1259 50.6301 19.1259C49.0201 19.1259 47.6621 18.6569 46.5561 17.7189C45.4641 16.7809 44.9182 15.4999 44.9182 13.8759V4.04785H47.8372V13.7709C47.8372 14.6949 48.0892 15.3879 48.5932 15.8499C49.1112 16.2979 49.7901 16.5219 50.6301 16.5219C51.4701 16.5219 52.1491 16.2979 52.6671 15.8499C53.1851 15.3879 53.4441 14.6949 53.4441 13.7709V4.04785H56.3422ZM70.7055 18.9999H67.3246L64.4056 13.4559H62.3055V18.9999H59.3866V7.26085C59.3866 6.14085 59.6456 5.32885 60.1636 4.82485C60.6816 4.30685 61.5496 4.04785 62.7676 4.04785H65.2455C66.7295 4.04785 67.9055 4.50285 68.7735 5.41285C69.6555 6.30885 70.0966 7.44985 70.0966 8.83585C70.0966 9.84385 69.8306 10.7189 69.2985 11.4609C68.7805 12.1889 68.1366 12.6929 67.3666 12.9729L70.7055 18.9999ZM65.0566 11.0199C65.6726 11.0199 66.1766 10.8099 66.5686 10.3899C66.9746 9.95585 67.1775 9.42385 67.1775 8.79385C67.1775 8.14985 66.9815 7.63185 66.5896 7.23985C66.2116 6.84785 65.7006 6.65185 65.0566 6.65185H63.6076C62.7396 6.65185 62.3055 7.09285 62.3055 7.97485V11.0199H65.0566ZM84.4667 18.9999H81.4217L80.5818 16.4169H75.5627L74.7437 18.9999H71.6987L76.4868 5.30785C76.6968 4.83185 76.9278 4.50285 77.1798 4.32085C77.4458 4.13885 77.7677 4.04785 78.1457 4.04785C78.5237 4.04785 78.8247 4.13185 79.0487 4.29985C79.2867 4.46785 79.4968 4.80385 79.6788 5.30785L84.4667 18.9999ZM79.9097 13.9599L78.1457 8.03785L76.2977 13.9599H79.9097Z" fill="#4465EA"/>
</g>
<defs>
<linearGradient id="paint0_linear_24103_32" x1="18.6049" y1="21.9643" x2="18.605" y2="16.2904" gradientUnits="userSpaceOnUse">
<stop stop-color="#459AD0"/>
<stop offset="1" stop-color="#4A9ACA"/>
</linearGradient>
<linearGradient id="paint1_linear_24103_32" x1="9.831" y1="6.96667" x2="9.831" y2="21.251" gradientUnits="userSpaceOnUse">
<stop stop-color="#273087"/>
<stop offset="0.341176" stop-color="#3155B0"/>
<stop offset="1" stop-color="#356EA4"/>
</linearGradient>
<linearGradient id="paint2_linear_24103_32" x1="0.768161" y1="20.6031" x2="9.88346" y2="3.77726" gradientUnits="userSpaceOnUse">
<stop stop-color="#4354F0"/>
<stop offset="1" stop-color="#4BB5CF"/>
</linearGradient>
<linearGradient id="paint3_linear_24103_32" x1="11.2685" y1="0.580878" x2="17.2567" y2="16.6566" gradientUnits="userSpaceOnUse">
<stop stop-color="#31C4BA"/>
<stop offset="1" stop-color="#3CADC2"/>
</linearGradient>
<clipPath id="clip0_24103_32">
<rect width="85" height="22" fill="white"/>
</clipPath>
</defs>
</svg>
