<svg width="98" height="40" viewBox="0 0 98 40" fill="none" xmlns="http://www.w3.org/2000/svg">
<path d="M18.7319 19.9971L14.7941 22.27L11.1365 28.6114L26.0472 19.9971H18.7319Z" fill="#8F4794"/>
<path d="M29.9846 13.5059L26.0468 15.7788L22.3892 22.1202L37.2999 13.5059H29.9846Z" fill="#E40646"/>
<path d="M26.0473 11.2311L22.3896 4.88965V17.8832V22.1184V35.1119L26.0473 28.7704V11.2311Z" fill="#F9B429"/>
<path d="M22.3896 4.88965L26.0473 11.2311L29.9851 13.504H37.3004L22.3896 4.88965Z" fill="#EF8019"/>
<path d="M22.3896 17.8828V35.1115L26.0473 28.7701V24.2243L22.3896 17.8828Z" fill="#78B72A"/>
<path d="M29.9849 26.4961L26.047 28.769L22.3894 35.1105L37.3001 26.4961H29.9849Z" fill="#00853F"/>
<path d="M11.1365 11.3896V28.6108L14.7941 22.2769V17.7235L11.1365 11.3896Z" fill="#5B57A2"/>
<path d="M22.3896 17.8826L22.3971 17.8902L11.1365 11.3896L14.7941 17.7235L29.985 26.497H37.3003L22.3896 17.8826Z" fill="#0698D6"/>
<path d="M80.6619 22.8193H81.1314V23.6149H81.5706C81.7751 23.6149 81.9417 23.6376 82.078 23.6906C82.2143 23.7437 82.3203 23.8118 82.396 23.8952C82.4793 23.9785 82.5323 24.077 82.5702 24.1907C82.6005 24.3043 82.6232 24.418 82.6232 24.5316C82.6232 24.6528 82.6081 24.7665 82.5702 24.8801C82.5323 24.9938 82.4718 25.0923 82.3885 25.1832C82.3052 25.2741 82.1916 25.3423 82.0477 25.3953C81.9038 25.4483 81.7296 25.4786 81.5252 25.4786H80.6694V22.8193H80.6619ZM81.1314 24.0543V25.0316H81.4721C81.7069 25.0316 81.8735 24.9938 81.972 24.9104C82.0704 24.8271 82.1158 24.7059 82.1158 24.5468C82.1158 24.3876 82.0704 24.2664 81.972 24.1831C81.8735 24.0997 81.7069 24.0619 81.4797 24.0619H81.1314V24.0543ZM83.123 22.8193H83.5925V25.4711H83.123V22.8193Z" fill="#FFFFFF"/>
<path d="M85.8567 24.0997L86.8639 25.4711H86.2883L85.5083 24.3952L84.7208 25.4711H84.1755L85.1751 24.1225L84.2285 22.8193H84.8041L85.5235 23.8194L86.258 22.8193H86.8033L85.8567 24.0997Z" fill="#FFFFFF"/>
<path d="M44.8049 25.0935C44.6913 25.2375 44.5398 25.3511 44.3657 25.4269C44.1839 25.5027 43.9946 25.5405 43.7901 25.5405C43.5781 25.5405 43.3888 25.5102 43.2146 25.442C43.0404 25.3739 42.889 25.2829 42.7678 25.1617C42.6391 25.0405 42.5482 24.8965 42.4725 24.7223C42.4043 24.548 42.3665 24.3586 42.3665 24.1541C42.3665 23.9646 42.3967 23.7828 42.4649 23.6086C42.5331 23.4419 42.6239 23.2903 42.7451 23.1691C42.8663 23.0479 43.0101 22.9494 43.1692 22.8736C43.3358 22.7979 43.5099 22.7676 43.7068 22.7676C43.9189 22.7676 44.1158 22.7979 44.2899 22.8509C44.4717 22.904 44.6231 22.9949 44.7443 23.1161L44.5247 23.4873C44.4111 23.3888 44.2899 23.3131 44.1612 23.2752C44.0325 23.2373 43.9037 23.2146 43.7598 23.2146C43.6387 23.2146 43.5251 23.2373 43.4191 23.2828C43.3055 23.3282 43.2146 23.3888 43.1237 23.4722C43.0404 23.5555 42.9723 23.654 42.9268 23.7677C42.8814 23.8813 42.8511 24.0101 42.8511 24.1541C42.8511 24.298 42.8738 24.4268 42.9268 24.548C42.9798 24.6617 43.048 24.7602 43.1313 24.8435C43.2146 24.9269 43.3206 24.9875 43.4342 25.0329C43.5478 25.0784 43.6765 25.1011 43.8053 25.1011C43.9643 25.1011 44.1082 25.0708 44.2369 25.0102C44.3657 24.9496 44.4717 24.8662 44.5625 24.7602L44.8049 25.0935Z" fill="#FFFFFF"/>
<path d="M45.4182 25.4711V22.8193H45.8877V24.7968L47.425 22.8193H47.8945V25.4711H47.425V23.4936L45.8953 25.4711H45.4182Z" fill="#FFFFFF"/>
<path d="M51.0146 25.0935C50.901 25.2375 50.7495 25.3511 50.5754 25.4269C50.3936 25.5027 50.2043 25.5405 49.9998 25.5405C49.7878 25.5405 49.5985 25.5102 49.4243 25.442C49.2501 25.3739 49.0987 25.2829 48.9775 25.1617C48.8564 25.0405 48.7579 24.8965 48.6822 24.7223C48.614 24.548 48.5762 24.3586 48.5762 24.1541C48.5762 23.9646 48.6065 23.7828 48.6746 23.6086C48.7428 23.4419 48.8336 23.2903 48.9548 23.1691C49.076 23.0479 49.2199 22.9494 49.3789 22.8736C49.5455 22.7979 49.7197 22.7676 49.9165 22.7676C50.1286 22.7676 50.3255 22.7979 50.4996 22.8509C50.6814 22.904 50.8328 22.9949 50.954 23.1161L50.7344 23.4873C50.6208 23.3888 50.4996 23.3131 50.3709 23.2752C50.2422 23.2373 50.1134 23.2146 49.9696 23.2146C49.8484 23.2146 49.7348 23.2373 49.6288 23.2828C49.5152 23.3282 49.4243 23.3888 49.3334 23.4722C49.2501 23.5555 49.182 23.654 49.1366 23.7677C49.0911 23.8813 49.0608 24.0101 49.0608 24.1541C49.0608 24.298 49.0835 24.4268 49.1366 24.548C49.1896 24.6617 49.2577 24.7602 49.341 24.8435C49.4243 24.9269 49.5303 24.9875 49.6439 25.0329C49.7575 25.0784 49.8863 25.1011 50.015 25.1011C50.174 25.1011 50.3179 25.0708 50.4466 25.0102C50.5754 24.9496 50.6814 24.8662 50.7723 24.7602L51.0146 25.0935Z" fill="#FFFFFF"/>
<path d="M51.2568 22.8193H53.6725V23.2891H52.6957V25.4711H52.2261V23.2891H51.2568V22.8193Z" fill="#FFFFFF"/>
<path d="M56.3456 25.1832C56.2169 25.3045 56.0579 25.3878 55.8837 25.4484C55.7019 25.509 55.5278 25.5318 55.3536 25.5318C55.134 25.5318 54.9447 25.5014 54.7705 25.4333C54.5963 25.3651 54.4449 25.2742 54.3237 25.1529C54.2025 25.0317 54.1041 24.8878 54.0359 24.7135C53.9678 24.5392 53.9375 24.3498 53.9375 24.1453C53.9375 23.9559 53.9678 23.774 54.0284 23.5998C54.089 23.4331 54.1798 23.2816 54.2934 23.1603C54.407 23.0391 54.5509 22.9406 54.7175 22.8649C54.8841 22.7891 55.081 22.7588 55.3006 22.7588C55.4672 22.7588 55.6262 22.7891 55.7777 22.8497C55.9291 22.9103 56.0579 22.9937 56.1715 23.0997C56.285 23.2058 56.3683 23.3346 56.4365 23.4861C56.5047 23.6377 56.5349 23.8043 56.5349 23.9786C56.5349 24.0998 56.5274 24.2059 56.5047 24.2968H54.4524C54.4752 24.5468 54.566 24.7438 54.7326 24.8802C54.8992 25.0166 55.1188 25.0923 55.3763 25.0923C55.5505 25.0923 55.7095 25.0696 55.8458 25.009C55.9897 24.9559 56.1033 24.8878 56.1866 24.812L56.3456 25.1832ZM55.2703 23.1982C55.028 23.1982 54.8311 23.2664 54.6872 23.3952C54.5433 23.5316 54.4524 23.6983 54.4297 23.9028H56.0427C56.0276 23.6831 55.9594 23.5089 55.8231 23.3801C55.6868 23.2664 55.4975 23.1982 55.2703 23.1982Z" fill="#FFFFFF"/>
<path d="M57.1711 22.824H57.6028L58.6175 24.1347L59.5868 22.8164H60.0033V25.4681H59.5338V23.5362L58.6175 24.7711H58.6024L57.6482 23.5362V25.4681H57.1787V22.824H57.1711Z" fill="#FFFFFF"/>
<path d="M60.882 23.0012C61.0031 22.9255 61.1319 22.8649 61.2909 22.827C61.4423 22.7815 61.6014 22.7588 61.768 22.7588C62.1466 22.7588 62.4041 22.8497 62.5555 23.0391C62.707 23.2285 62.7827 23.4937 62.7827 23.8422V25.4711H62.3435V25.1302C62.2678 25.2287 62.1617 25.3196 62.0254 25.3954C61.8891 25.4711 61.715 25.509 61.4953 25.509C61.253 25.509 61.0561 25.4408 60.9047 25.2969C60.7532 25.1529 60.6775 24.9484 60.6775 24.6908C60.6775 24.5544 60.7002 24.4407 60.7532 24.3271C60.8062 24.221 60.8744 24.1301 60.9653 24.0619C61.0561 23.9937 61.1621 23.9407 61.2833 23.9028C61.4045 23.8649 61.5408 23.8498 61.6847 23.8498C61.7831 23.8498 61.8967 23.8649 62.0254 23.8877C62.1466 23.9104 62.2526 23.9559 62.3435 24.024C62.3435 23.9028 62.3359 23.7892 62.3208 23.6831C62.3056 23.577 62.2829 23.4937 62.2375 23.4179C62.1996 23.3422 62.1315 23.2891 62.0557 23.2437C61.9724 23.2058 61.8664 23.1831 61.7377 23.1831C61.5711 23.1831 61.4348 23.1982 61.3287 23.2361C61.2227 23.274 61.1167 23.3194 61.0107 23.3725L60.882 23.0012ZM61.6544 25.0923C61.8285 25.0923 61.9649 25.0544 62.0784 24.9787C62.1845 24.9029 62.2753 24.8271 62.3435 24.7514V24.418C62.1769 24.2968 61.98 24.2438 61.7452 24.2438C61.6771 24.2438 61.6014 24.2513 61.5332 24.2741C61.4651 24.2892 61.4045 24.3195 61.3515 24.3498C61.2985 24.3877 61.253 24.4332 61.2227 24.4862C61.1924 24.5392 61.1773 24.6074 61.1773 24.6832C61.1773 24.812 61.2152 24.9105 61.2985 24.9862C61.3818 25.0469 61.4953 25.0923 61.6544 25.0923Z" fill="#FFFFFF"/>
<path d="M67.2051 21.6554C67.1218 21.7615 67.0309 21.8373 66.94 21.8827C66.8416 21.9282 66.7431 21.9585 66.6295 21.9812C66.5159 22.0039 66.3948 22.0267 66.266 22.0494C66.1373 22.0721 66.001 22.1176 65.8571 22.1858C65.7284 22.2388 65.6299 22.3146 65.5466 22.4131C65.4633 22.504 65.4027 22.61 65.3497 22.7313C65.2967 22.8449 65.2589 22.9737 65.2361 23.0949C65.2134 23.2162 65.1907 23.345 65.1831 23.4738H65.1983C65.2437 23.3828 65.2967 23.2919 65.3725 23.2237C65.4482 23.148 65.5239 23.0874 65.6224 23.0268C65.7132 22.9737 65.8117 22.9283 65.9177 22.898C66.0237 22.8676 66.1373 22.8525 66.2509 22.8525C66.4402 22.8525 66.6068 22.8828 66.7658 22.9434C66.9173 23.004 67.046 23.0949 67.152 23.2086C67.2581 23.3222 67.3414 23.4662 67.3944 23.6253C67.455 23.7844 67.4777 23.9662 67.4777 24.1708C67.4777 24.3526 67.4474 24.5269 67.3792 24.6936C67.3111 24.8602 67.2202 25.0042 67.099 25.1254C66.9779 25.2466 66.834 25.3451 66.6674 25.4209C66.5008 25.4967 66.319 25.527 66.1146 25.527C65.895 25.527 65.7057 25.4891 65.5315 25.4133C65.3573 25.3376 65.2134 25.2239 65.0923 25.0875C64.9711 24.9436 64.8802 24.7693 64.8121 24.5648C64.7439 24.3602 64.7136 24.1329 64.7136 23.8753C64.7136 23.6783 64.7288 23.4738 64.7515 23.2616C64.7742 23.0495 64.8196 22.8449 64.8954 22.6479C64.9711 22.4509 65.062 22.2767 65.1907 22.1176C65.3194 21.9585 65.486 21.8373 65.6981 21.7463C65.8495 21.6782 65.9934 21.6327 66.1146 21.61C66.2433 21.5872 66.3569 21.5721 66.4554 21.5494C66.5538 21.5342 66.6447 21.5039 66.728 21.4736C66.8113 21.4433 66.887 21.3751 66.9551 21.2842L67.2051 21.6554ZM65.2134 23.9738C65.2134 24.1481 65.2361 24.2996 65.2816 24.4435C65.327 24.5799 65.3876 24.7011 65.4633 24.7921C65.5391 24.8905 65.6375 24.9663 65.7435 25.0193C65.8571 25.0724 65.9707 25.1027 66.0994 25.1027C66.2282 25.1027 66.3493 25.08 66.4554 25.0345C66.5614 24.989 66.6522 24.9208 66.728 24.8451C66.8037 24.7617 66.8643 24.6708 66.9097 24.5648C66.9552 24.4587 66.9779 24.3375 66.9779 24.2162C66.9779 23.9586 66.9021 23.7389 66.7583 23.5723C66.6144 23.398 66.4023 23.3147 66.1297 23.3147C66.001 23.3147 65.8874 23.3374 65.789 23.3753C65.6905 23.4131 65.5996 23.4662 65.5163 23.5268C65.4406 23.5874 65.3725 23.6632 65.3194 23.7389C65.2664 23.7995 65.2361 23.8829 65.2134 23.9738Z" fill="#FFFFFF"/>
<path d="M68.1592 22.8193H68.6287V23.6149H69.0679C69.2724 23.6149 69.439 23.6376 69.5753 23.6906C69.7116 23.7437 69.8176 23.8118 69.8933 23.8952C69.9766 23.9785 70.0296 24.077 70.0675 24.1907C70.0978 24.3043 70.1205 24.418 70.1205 24.5316C70.1205 24.6528 70.1054 24.7665 70.0675 24.8801C70.0296 24.9938 69.9691 25.0923 69.8858 25.1832C69.8025 25.2741 69.6889 25.3423 69.545 25.3953C69.4011 25.4483 69.2269 25.4786 69.0225 25.4786H68.1592V22.8193ZM68.6287 24.0543V25.0316H68.9695C69.2042 25.0316 69.3708 24.9938 69.4693 24.9104C69.5677 24.8271 69.6131 24.7059 69.6131 24.5468C69.6131 24.3876 69.5677 24.2664 69.4693 24.1831C69.3708 24.0997 69.2042 24.0619 68.977 24.0619H68.6287V24.0543ZM70.6203 22.8193H71.0898V25.4711H70.6203V22.8193Z" fill="#FFFFFF"/>
<path d="M74.2099 25.0935C74.0963 25.2375 73.9449 25.3511 73.7707 25.4269C73.5889 25.5027 73.3996 25.5405 73.1952 25.5405C72.9831 25.5405 72.7938 25.5102 72.6196 25.442C72.4455 25.3739 72.294 25.2829 72.1728 25.1617C72.0441 25.0405 71.9532 24.8965 71.8775 24.7223C71.8093 24.548 71.7715 24.3586 71.7715 24.1541C71.7715 23.9646 71.8018 23.7828 71.8699 23.6086C71.9381 23.4419 72.029 23.2903 72.1501 23.1691C72.2713 23.0479 72.4152 22.9494 72.5742 22.8736C72.7408 22.7979 72.915 22.7676 73.1119 22.7676C73.3239 22.7676 73.5208 22.7979 73.695 22.8509C73.8767 22.904 74.0282 22.9949 74.1493 23.1161L73.9297 23.4873C73.8161 23.3888 73.695 23.3131 73.5662 23.2752C73.4375 23.2373 73.3087 23.2146 73.1649 23.2146C73.0437 23.2146 72.9301 23.2373 72.8241 23.2828C72.7105 23.3282 72.6196 23.3888 72.5288 23.4722C72.4455 23.5555 72.3773 23.654 72.3319 23.7677C72.2864 23.8813 72.2561 24.0101 72.2561 24.1541C72.2561 24.298 72.2789 24.4268 72.3319 24.548C72.3849 24.6617 72.453 24.7602 72.5363 24.8435C72.6196 24.9269 72.7256 24.9875 72.8392 25.0329C72.9528 25.0784 73.0816 25.1011 73.2103 25.1011C73.3693 25.1011 73.5132 25.0708 73.6419 25.0102C73.7707 24.9496 73.8767 24.8662 73.9676 24.7602L74.2099 25.0935Z" fill="#FFFFFF"/>
<path d="M74.4521 22.8193H76.8679V23.2891H75.891V25.4711H75.4215V23.2891H74.4521V22.8193Z" fill="#FFFFFF"/>
<path d="M77.3828 22.8194H77.8523V23.13C77.9432 23.024 78.0719 22.933 78.231 22.8649C78.3976 22.7967 78.5717 22.7588 78.7535 22.7588C78.9428 22.7588 79.1094 22.7891 79.2609 22.8573C79.4123 22.9255 79.5411 23.0164 79.6471 23.1376C79.7531 23.2588 79.8364 23.3952 79.8894 23.5619C79.95 23.7286 79.9727 23.9104 79.9727 24.1074C79.9727 24.3044 79.9424 24.4938 79.8743 24.668C79.8061 24.8423 79.7152 24.9938 79.5941 25.1226C79.4729 25.2514 79.329 25.3499 79.1548 25.4257C78.9882 25.5014 78.7989 25.5318 78.5869 25.5318C78.443 25.5318 78.3067 25.5166 78.178 25.4863C78.0492 25.456 77.9356 25.4105 77.8372 25.3499V26.6531H77.3677V22.8194H77.3828ZM78.6172 23.1982C78.4581 23.1982 78.3143 23.2361 78.178 23.3043C78.0416 23.3725 77.9356 23.4634 77.8523 23.5619V24.8802C77.9735 24.9559 78.0871 25.0166 78.2007 25.0393C78.3143 25.0696 78.4354 25.0847 78.5566 25.0847C78.7005 25.0847 78.8292 25.062 78.9428 25.009C79.0564 24.9635 79.1548 24.8953 79.2306 24.812C79.3063 24.7287 79.3669 24.6226 79.4123 24.5089C79.4577 24.3877 79.4805 24.2589 79.4805 24.1225C79.4805 23.9862 79.4653 23.8649 79.4275 23.7513C79.3896 23.6377 79.3366 23.5392 79.2609 23.4558C79.1851 23.3725 79.0943 23.3119 78.9882 23.2664C78.8747 23.221 78.7535 23.1982 78.6172 23.1982Z" fill="#FFFFFF"/>
<path d="M44.4564 28.7549H43.01V30.9672H42.5405V28.3154H44.9259V30.9672H44.4564V28.7549Z" fill="#FFFFFF"/>
<path d="M47.5993 28.784H46.6679L46.6376 29.231C46.6073 29.6098 46.5619 29.9128 46.4937 30.1477C46.4331 30.3826 46.3574 30.5568 46.2665 30.6856C46.1757 30.8144 46.0696 30.8978 45.9561 30.9356C45.8349 30.9811 45.7137 31.0038 45.5698 31.0038L45.532 30.5417C45.585 30.5493 45.638 30.5341 45.7062 30.5038C45.7743 30.4735 45.8349 30.4129 45.903 30.3068C45.9636 30.2083 46.0242 30.0644 46.0772 29.875C46.1302 29.6855 46.1605 29.4431 46.1757 29.1325L46.2211 28.3066H48.0688V30.9584H47.5993V28.784Z" fill="#FFFFFF"/>
<path d="M48.9393 28.4983C49.0605 28.4225 49.1892 28.3619 49.3483 28.324C49.4997 28.2786 49.6587 28.2559 49.8253 28.2559C50.204 28.2559 50.4614 28.3468 50.6129 28.5362C50.7644 28.7256 50.8401 28.9908 50.8401 29.3393V30.9682H50.4009V30.6273C50.3251 30.7258 50.2191 30.8167 50.0828 30.8924C49.9465 30.9682 49.7723 31.0061 49.5527 31.0061C49.3104 31.0061 49.1135 30.9379 48.962 30.794C48.8106 30.65 48.7349 30.4454 48.7349 30.1878C48.7349 30.0515 48.7576 29.9378 48.8106 29.8242C48.8636 29.7181 48.9318 29.6272 49.0226 29.559C49.1135 29.4908 49.2195 29.4378 49.3407 29.3999C49.4618 29.362 49.5982 29.3469 49.742 29.3469C49.8405 29.3469 49.9541 29.362 50.0828 29.3847C50.204 29.4075 50.31 29.4529 50.4009 29.5211C50.4009 29.3999 50.3933 29.2863 50.3781 29.1802C50.363 29.0741 50.3403 28.9908 50.2948 28.915C50.257 28.8392 50.1888 28.7862 50.1131 28.7407C50.0298 28.7029 49.9238 28.6801 49.795 28.6801C49.6284 28.6801 49.4921 28.6953 49.3861 28.7332C49.2801 28.7711 49.1741 28.8165 49.0681 28.8695L48.9393 28.4983ZM49.7117 30.5894C49.8859 30.5894 50.0222 30.5515 50.1358 30.4757C50.2418 30.4 50.3327 30.3242 50.4009 30.2485V29.9151C50.2343 29.7939 50.0374 29.7408 49.8026 29.7408C49.7345 29.7408 49.6587 29.7484 49.5906 29.7711C49.5224 29.7863 49.4618 29.8166 49.4088 29.8469C49.3558 29.8848 49.3104 29.9302 49.2801 29.9833C49.2498 30.0363 49.2347 30.1045 49.2347 30.1803C49.2347 30.3091 49.2725 30.4076 49.3558 30.4833C49.4391 30.5515 49.5603 30.5894 49.7117 30.5894Z" fill="#FFFFFF"/>
<path d="M51.3022 28.3154H53.7179V28.7852H52.7411V30.9672H52.2716V28.7852H51.3022V28.3154Z" fill="#FFFFFF"/>
<path d="M56.3837 30.6803C56.255 30.8015 56.096 30.8849 55.9218 30.9455C55.74 31.0061 55.5659 31.0288 55.3917 31.0288C55.1721 31.0288 54.9828 30.9985 54.8086 30.9303C54.6344 30.8621 54.483 30.7712 54.3618 30.65C54.2406 30.5288 54.1422 30.3848 54.074 30.2106C54.0059 30.0363 53.9756 29.8469 53.9756 29.6423C53.9756 29.4529 54.0059 29.2711 54.0665 29.0968C54.127 28.9302 54.2179 28.7786 54.3315 28.6574C54.4451 28.5362 54.589 28.4377 54.7556 28.3619C54.9222 28.2862 55.1191 28.2559 55.3387 28.2559C55.5053 28.2559 55.6643 28.2862 55.8158 28.3468C55.9672 28.4074 56.096 28.4907 56.2095 28.5968C56.3231 28.7029 56.4064 28.8317 56.4746 28.9832C56.5427 29.1347 56.573 29.3014 56.573 29.4757C56.573 29.5969 56.5655 29.703 56.5427 29.7939H54.5057C54.5284 30.0439 54.6193 30.2409 54.7859 30.3773C54.9525 30.5136 55.1721 30.5894 55.4296 30.5894C55.6037 30.5894 55.7627 30.5667 55.8991 30.5061C56.0429 30.453 56.1565 30.3848 56.2398 30.3091L56.3837 30.6803ZM55.3084 28.7029C55.0661 28.7029 54.8692 28.7711 54.7253 28.8999C54.5814 29.0362 54.4905 29.2029 54.4678 29.4075H56.0808C56.0657 29.1878 55.9975 29.0135 55.8612 28.8847C55.7249 28.7635 55.5431 28.7029 55.3084 28.7029Z" fill="#FFFFFF"/>
<path d="M56.8001 28.3154H57.3983L58.307 29.5958L57.3302 30.9672H56.7546L57.777 29.5958L56.8001 28.3154ZM58.4206 28.3154H58.8901V30.9672H58.4206V28.3154ZM59.5414 29.5958L60.5789 30.9672H59.9958L59.0113 29.5958L59.9276 28.3154H60.5107L59.5414 29.5958Z" fill="#FFFFFF"/>
<path d="M63.1916 30.6803C63.0628 30.8015 62.9038 30.8849 62.7296 30.9455C62.5479 31.0061 62.3737 31.0288 62.1995 31.0288C61.9799 31.0288 61.7906 30.9985 61.6164 30.9303C61.4423 30.8621 61.2908 30.7712 61.1697 30.65C61.0485 30.5288 60.9501 30.3848 60.8819 30.2106C60.8137 30.0363 60.7834 29.8469 60.7834 29.6423C60.7834 29.4529 60.8137 29.2711 60.8743 29.0968C60.9349 28.9302 61.0258 28.7786 61.1394 28.6574C61.253 28.5362 61.3968 28.4377 61.5634 28.3619C61.73 28.2862 61.9269 28.2559 62.1465 28.2559C62.3131 28.2559 62.4722 28.2862 62.6236 28.3468C62.7751 28.4074 62.9038 28.4907 63.0174 28.5968C63.131 28.7029 63.2143 28.8317 63.2824 28.9832C63.3506 29.1347 63.3809 29.3014 63.3809 29.4757C63.3809 29.5969 63.3733 29.703 63.3506 29.7939H61.3135C61.3363 30.0439 61.4271 30.2409 61.5937 30.3773C61.7603 30.5136 61.9799 30.5894 62.2374 30.5894C62.4116 30.5894 62.5706 30.5667 62.7069 30.5061C62.8508 30.453 62.9644 30.3848 63.0477 30.3091L63.1916 30.6803ZM62.1163 28.7029C61.8739 28.7029 61.677 28.7711 61.5331 28.8999C61.3893 29.0362 61.2984 29.2029 61.2757 29.4075H62.8887C62.8735 29.1878 62.8054 29.0135 62.6691 28.8847C62.5328 28.7635 62.351 28.7029 62.1163 28.7029Z" fill="#FFFFFF"/>
<path d="M64.0168 30.9659V28.3142H64.4864V30.2916L66.0236 28.3142H66.4931V30.9659H66.0236V28.9885L64.4864 30.9659H64.0168ZM64.8347 26.958C64.8574 27.2686 65.0089 27.4277 65.2891 27.4277C65.5541 27.4277 65.698 27.2762 65.7207 26.958H66.1599C66.1599 27.0792 66.1372 27.1853 66.0993 27.2838C66.0615 27.3823 66.0009 27.4732 65.9252 27.5414C65.8494 27.6172 65.7586 27.6702 65.6526 27.7156C65.5465 27.7611 65.4254 27.7838 65.2891 27.7838C65.1452 27.7838 65.0164 27.7611 64.9029 27.7156C64.7893 27.6702 64.6984 27.6172 64.6227 27.5414C64.5469 27.4656 64.4939 27.3823 64.4485 27.2838C64.4106 27.1853 64.3879 27.0717 64.3879 26.958H64.8347Z" fill="#FFFFFF"/>
<path d="M68.2349 11.7002V19.4508H65.5087V14.0034H62.8885V19.4508H60.1624V11.7002H68.2349Z" fill="#FFFFFF"/>
<path d="M58.822 15.8188C58.8599 18.069 57.0424 19.6752 54.4677 19.6752C52.0293 19.6752 49.9695 18.1978 49.9695 14.599C49.9695 11.5457 51.9232 9.02276 54.8085 8.9773C56.0731 8.9773 58.822 8.96973 58.822 8.96973L57.5498 11.2654C57.5498 11.2654 55.384 11.2654 55.0962 11.2654C53.8543 11.2654 52.7411 12.1064 52.5821 13.3868C53.2485 12.7655 54.2784 12.3943 55.3386 12.3943C57.3302 12.4018 58.7917 14.0914 58.822 15.8188ZM56.1034 15.993C56.1034 15.099 55.4143 14.349 54.4828 14.349C53.559 14.349 52.832 15.1066 52.8471 16.0082C52.8471 16.9628 53.6953 17.6068 54.4298 17.6068C55.3688 17.6068 56.1034 16.9022 56.1034 15.993Z" fill="#FFFFFF"/>
<path d="M47.8717 16.7959C47.8717 16.7959 46.9553 17.4096 45.7361 17.3869C44.9713 17.3869 43.949 16.7202 43.949 15.5458C43.9641 14.3488 44.9789 13.7048 45.7437 13.7048C46.9326 13.6669 47.8717 14.2957 47.8717 14.2957L48.8864 12.4622C47.9852 11.8182 47.122 11.4773 45.8952 11.4697C43.2371 11.4697 41.4121 13.629 41.4121 15.5534C41.4121 17.8036 43.4416 19.6598 45.88 19.675C46.9553 19.6901 48.0534 19.334 48.9015 18.6597L47.8717 16.7959Z" fill="#FFFFFF"/>
</svg>
