<svg width="80" height="40" viewBox="0 0 80 40" fill="none" xmlns="http://www.w3.org/2000/svg">
<path d="M46.5776 8.18173H33.4237V31.8189H46.5776V8.18173Z" fill="#FF5F00"/>
<path d="M34.259 20.0003C34.2569 17.7239 34.7728 15.4768 35.7675 13.4292C36.7623 11.3816 38.2099 9.58719 40.0007 8.18174C37.783 6.43865 35.1196 5.35464 32.315 5.05363C29.5104 4.75261 26.6776 5.24672 24.1405 6.4795C21.6034 7.71227 19.4644 9.63398 17.9679 12.0249C16.4713 14.4159 15.6777 17.1797 15.6777 20.0003C15.6777 22.821 16.4713 25.5848 17.9679 27.9757C19.4644 30.3667 21.6034 32.2884 24.1405 33.5212C26.6776 34.7539 29.5104 35.248 32.315 34.947C35.1196 34.646 37.783 33.562 40.0007 31.8189C38.2099 30.4134 36.7623 28.619 35.7675 26.5714C34.7728 24.5238 34.2569 22.2768 34.259 20.0003Z" fill="#EB001B"/>
<path d="M64.3229 20.0003C64.323 22.8209 63.5295 25.5847 62.033 27.9757C60.5366 30.3666 58.3976 32.2883 55.8606 33.5211C53.3235 34.7539 50.4908 35.248 47.6862 34.947C44.8816 34.646 42.2183 33.562 40.0007 31.8189C41.7899 30.412 43.2364 28.6173 44.231 26.57C45.2256 24.5228 45.7424 22.2764 45.7424 20.0003C45.7424 17.7243 45.2256 15.4779 44.231 13.4306C43.2364 11.3833 41.7899 9.58861 40.0007 8.18174C42.2183 6.43864 44.8816 5.35464 47.6862 5.05362C50.4908 4.75261 53.3235 5.24674 55.8606 6.47953C58.3976 7.71232 60.5366 9.63402 62.033 12.025C63.5295 14.4159 64.323 17.1797 64.3229 20.0003Z" fill="#F79E1B"/>
<path d="M62.8887 29.3154V28.8314H63.0838V28.7329H62.5868V28.8314H62.7821V29.3154H62.8887ZM63.8535 29.3154V28.7319H63.7012L63.526 29.1332L63.3507 28.7319H63.1983V29.3154H63.3058V28.8752L63.4701 29.2547H63.5817L63.746 28.8743V29.3154H63.8535Z" fill="#F79E1B"/>
</svg>
