<svg width="80" height="40" viewBox="0 0 80 40" fill="none" xmlns="http://www.w3.org/2000/svg">
<path fill-rule="evenodd" clip-rule="evenodd" d="M23.0338 29.6844H17.8523L13.9669 14.4252C13.7824 13.7233 13.3909 13.1028 12.8149 12.8103C11.3774 12.0753 9.79342 11.4904 8.06543 11.1954V10.6079H16.4123C17.5643 10.6079 18.4283 11.4904 18.5723 12.5153L20.5883 23.5223L25.7672 10.6079H30.8047L23.0338 29.6844ZM33.6838 29.6844H28.7903L32.8198 10.6079H37.7132L33.6838 29.6844ZM44.0463 15.8898C44.1903 14.8623 45.0543 14.2748 46.0623 14.2748C47.6463 14.1273 49.3717 14.4224 50.8117 15.1548L51.6757 11.0475C50.2357 10.46 48.6518 10.165 47.2143 10.165C42.4648 10.165 39.0089 12.8074 39.0089 16.4747C39.0089 19.2646 41.4568 20.7295 43.1848 21.612C45.0543 22.4919 45.7743 23.0794 45.6303 23.9593C45.6303 25.2793 44.1903 25.8667 42.7528 25.8667C41.0249 25.8667 39.2969 25.4268 37.7154 24.6918L36.8514 28.8016C38.5794 29.534 40.4489 29.829 42.1768 29.829C47.5023 29.974 50.8117 27.3342 50.8117 23.3719C50.8117 18.3821 44.0463 18.0896 44.0463 15.8898ZM67.9345 29.6844L64.049 10.6079H59.8756C59.0116 10.6079 58.1476 11.1954 57.8596 12.0753L50.6647 29.6844H55.7021L56.7076 26.8971H62.897L63.473 29.6844H67.9345ZM60.5962 15.7431L62.0337 22.9327H58.0042L60.5962 15.7431Z" fill="#172B85"/>
</svg>
