<svg width="104" height="40" viewBox="0 0 104 40" fill="none" xmlns="http://www.w3.org/2000/svg">
<path d="M66.3992 22.8983L67.2116 23.1409C67.1575 23.3701 67.0762 23.5588 66.9543 23.7071C66.8325 23.8553 66.6971 23.9767 66.521 24.0441C66.345 24.1249 66.1283 24.1654 65.8575 24.1654C65.5325 24.1654 65.2752 24.1249 65.0586 24.0306C64.8555 23.9362 64.6794 23.7745 64.5305 23.5318C64.3815 23.3027 64.3003 22.9926 64.3003 22.6287C64.3003 22.1434 64.4357 21.766 64.693 21.4964C64.9503 21.2268 65.3294 21.1055 65.8034 21.1055C66.1825 21.1055 66.4669 21.1863 66.6835 21.3346C66.9002 21.4829 67.0627 21.7121 67.1575 22.0356L66.345 22.2108C66.3179 22.1165 66.2908 22.0491 66.2502 22.0086C66.196 21.9412 66.1419 21.8873 66.0606 21.8469C65.9794 21.8064 65.8981 21.7929 65.8169 21.7929C65.6138 21.7929 65.4513 21.8738 65.343 22.0491C65.2617 22.1704 65.2211 22.3726 65.2211 22.6287C65.2211 22.9522 65.2752 23.1814 65.37 23.3027C65.4648 23.424 65.6138 23.4914 65.7898 23.4914C65.9658 23.4914 66.1013 23.4375 66.1825 23.3431C66.2908 23.2218 66.3585 23.087 66.3992 22.8983Z" fill="#225E63"/>
<path d="M67.5369 22.6275C67.5369 22.1422 67.6723 21.7648 67.9431 21.4952C68.2139 21.2256 68.5931 21.0908 69.0805 21.0908C69.5816 21.0908 69.9607 21.2256 70.2315 21.4817C70.5024 21.7513 70.6378 22.1153 70.6378 22.6006C70.6378 22.951 70.5836 23.2341 70.4617 23.4498C70.3399 23.6655 70.1774 23.8407 69.9472 23.962C69.7305 24.0833 69.4462 24.1507 69.1212 24.1507C68.7826 24.1507 68.5118 24.0968 68.2816 23.989C68.065 23.8811 67.8889 23.7194 67.74 23.4767C67.591 23.2341 67.5369 22.978 67.5369 22.6275ZM68.4577 22.6275C68.4577 22.9241 68.5118 23.1397 68.6201 23.2745C68.7285 23.4093 68.8774 23.4767 69.0805 23.4767C69.2837 23.4767 69.4326 23.4093 69.5409 23.288C69.6493 23.1532 69.7034 22.9241 69.7034 22.6006C69.7034 22.3175 69.6493 22.1153 69.5274 21.994C69.4191 21.8592 69.2566 21.8053 69.067 21.8053C68.8774 21.8053 68.7285 21.8726 68.6201 22.0074C68.5118 22.1153 68.4577 22.331 68.4577 22.6275Z" fill="#225E63"/>
<path d="M71.1113 21.1445H72.3165L72.7769 22.9508L73.2373 21.1445H74.4424V24.1101H73.6841V21.8455L73.1018 24.1101H72.4248L71.8425 21.8455V24.1101H71.0842V21.1445H71.1113Z" fill="#225E63"/>
<path d="M75.0388 21.1445H76.569C76.9075 21.1445 77.1512 21.2254 77.3137 21.3872C77.4762 21.5489 77.5575 21.7646 77.5575 22.0612C77.5575 22.3577 77.4627 22.6003 77.2866 22.7621C77.1106 22.9373 76.8262 23.0182 76.4606 23.0182H75.9596V24.1236H75.0388V21.1445ZM75.9596 22.4116H76.1898C76.3658 22.4116 76.4877 22.3847 76.569 22.3173C76.6367 22.2499 76.6773 22.1825 76.6773 22.0881C76.6773 21.9938 76.6502 21.9129 76.5825 21.8455C76.5148 21.7781 76.4065 21.7511 76.2304 21.7511H75.9732V22.4116H75.9596Z" fill="#225E63"/>
<path d="M78.0447 21.1445H78.9655V23.3822H80.4008V24.1101H78.0447V21.1445Z" fill="#225E63"/>
<path d="M80.8611 21.1445H81.7819V24.1101H80.8611V21.1445Z" fill="#225E63"/>
<path d="M84.2737 23.6102H83.231L83.082 24.0954H82.1477L83.2716 21.1299H84.2737L85.3976 24.0954H84.4361L84.2737 23.6102ZM84.0841 22.9766L83.7591 21.9117L83.4341 22.9766H84.0841Z" fill="#225E63"/>
<path d="M85.6816 21.1445H86.5347L87.6586 22.7891V21.1445H88.5253V24.1101H87.6586L86.5483 22.479V24.1101H85.6816V21.1445Z" fill="#225E63"/>
<path d="M88.9314 21.1445H91.7344V21.8724H90.8001V24.1101H89.8793V21.8724H88.9449V21.1445H88.9314Z" fill="#225E63"/>
<path d="M55.3232 25.6623L57.9908 24.8265L57.1242 22.9124C56.4877 23.7077 55.8513 24.7322 55.3232 25.6623ZM54.416 16.9139L49.1891 5.32129L10.9221 7.47805L21.5248 36.2709L41.9311 29.868C40.6312 28.0077 40.1572 25.7971 41.6603 24.7187C43.3394 23.5055 45.8716 24.9074 47.483 26.8889C49.0402 24.3008 53.4139 18.2754 54.416 16.9139Z" fill="#225E63"/>
<path d="M47.9972 13.6988C49.595 13.6988 50.8949 12.4856 50.8949 10.9758C50.8949 9.46611 49.595 8.25293 47.9972 8.25293C46.3993 8.25293 45.0994 9.46611 45.0994 10.9758C45.0994 12.4721 46.3993 13.6988 47.9972 13.6988ZM45.6275 14.8715H50.3668V27.2055H45.6275V14.8715Z" fill="#FEFEFE"/>
<path d="M43.2845 18.4702C43.3252 18.4837 43.3523 18.4702 43.3523 18.4297V15.3024C43.3523 15.262 43.3252 15.2215 43.2845 15.1946C43.2845 15.1946 42.6617 14.7902 40.7659 14.6824C40.6711 14.6284 39.0056 14.615 38.5587 14.6824C31.6528 15.235 31.3955 20.2091 31.3955 20.4247V21.6379C31.3955 21.7862 31.3955 26.8681 38.5587 27.3129C39.2629 27.3668 40.6305 27.3129 40.7659 27.3129C42.4179 27.3129 43.5554 26.8142 43.5554 26.8142C43.596 26.8007 43.6231 26.7602 43.6231 26.7198V23.7947C43.6231 23.7542 43.596 23.7408 43.5689 23.7677C43.5689 23.7677 43.0543 24.1721 40.8065 24.4013C40.1701 24.4687 39.8587 24.4417 39.6285 24.4013C36.4328 23.8621 36.2838 21.5436 36.2838 21.5436C36.2838 21.5031 36.2703 21.4357 36.2703 21.4088V20.5191C36.2703 20.4787 36.2703 20.4113 36.2838 20.3843C36.2838 20.3843 36.5005 17.8905 39.6285 17.6209H40.8065C42.1742 17.7962 43.2845 18.4702 43.2845 18.4702Z" fill="#FEFEFE"/>
<path d="M18.2336 27.1641C18.2336 27.2045 18.2607 27.2315 18.3013 27.2315H22.9188C22.9595 27.2315 22.9866 27.2045 22.9866 27.1641V23.5784C22.9866 23.538 23.0136 23.511 23.0543 23.511C23.0543 23.511 30.4341 24.0368 30.4341 19.1166C30.4341 15.221 25.8031 14.8031 24.2865 14.8705C24.2594 14.8705 18.3013 14.8705 18.3013 14.8705C18.2607 14.8705 18.2336 14.8975 18.2336 14.9379V27.1641ZM22.9053 20.7746V17.553H24.0428C24.0428 17.553 25.6812 17.6204 25.8166 18.7392C25.8437 18.8201 25.8437 19.3727 25.8166 19.3997C25.6 20.7072 24.1782 20.7746 24.1782 20.7746H22.9053Z" fill="#FEFEFE"/>
<path d="M48.1329 33.1563C48.512 33.1563 48.8099 33.1563 49.2974 32.9407C50.9765 32.0645 56.6502 18.2747 62.6353 14.0285C62.676 14.0016 62.7166 13.9611 62.7437 13.9207C62.7843 13.8668 62.7843 13.8129 62.7843 13.8129C62.7843 13.8129 62.7843 13.5298 61.9041 13.5298C56.5825 13.3815 51.0442 24.5023 48.1329 28.8967C48.0923 28.9507 47.9027 28.8967 47.9027 28.8967C47.9027 28.8967 45.9528 26.6052 44.2601 25.729C44.2195 25.7155 44.0299 25.6481 43.8268 25.6616C43.6914 25.6616 42.906 25.8233 42.5404 26.2008C42.1071 26.6591 42.1207 26.9152 42.1207 27.4679C42.1207 27.5083 42.1477 27.697 42.2019 27.7914C42.6217 28.5193 44.5039 31.1074 46.0611 32.5363C46.2913 32.7115 46.6569 33.1563 48.1329 33.1563Z" fill="#2BBC5D"/>
<path d="M64.2061 9.86133H68.634C69.5141 9.86133 70.2183 9.98265 70.7464 10.2118C71.288 10.4544 71.7349 10.7914 72.0734 11.2228C72.4255 11.6676 72.6828 12.1798 72.8317 12.7595C72.9942 13.3391 73.0754 13.9592 73.0754 14.6197C73.0754 15.6442 72.9536 16.4395 72.7234 17.0056C72.4932 17.5718 72.1682 18.0436 71.7484 18.4345C71.3286 18.8119 70.8818 19.068 70.4079 19.2028C69.7579 19.378 69.1621 19.4589 68.634 19.4589H64.2061V9.86133ZM67.1851 12.0316V17.2752H67.9163C68.5392 17.2752 68.986 17.2078 69.2433 17.073C69.5006 16.9382 69.7173 16.6956 69.8662 16.3586C70.0152 16.0216 70.0964 15.4554 70.0964 14.6871C70.0964 13.6626 69.9339 12.9752 69.5954 12.5977C69.2569 12.2203 68.7152 12.0316 67.9298 12.0316H67.1851Z" fill="#225E63"/>
<path d="M73.9014 16.2926L76.745 16.1174C76.8127 16.5757 76.9346 16.9261 77.1241 17.1688C77.4356 17.5597 77.8689 17.7484 78.4376 17.7484C78.8574 17.7484 79.1959 17.654 79.4261 17.4519C79.6563 17.2497 79.7782 17.0205 79.7782 16.7644C79.7782 16.5217 79.6699 16.2926 79.4532 16.0904C79.2365 15.8882 78.722 15.713 77.9231 15.5377C76.6096 15.2412 75.6888 14.8503 75.1201 14.365C74.5513 13.8797 74.2805 13.2596 74.2805 12.5048C74.2805 12.006 74.4295 11.5477 74.7138 11.1029C74.9982 10.658 75.4315 10.321 76.0138 10.0649C76.596 9.80882 77.3814 9.6875 78.3835 9.6875C79.6157 9.6875 80.5636 9.91666 81.2 10.375C81.85 10.8333 82.2291 11.5612 82.351 12.5587L79.5344 12.7205C79.4532 12.2891 79.3042 11.9791 79.0605 11.7769C78.8168 11.5747 78.4918 11.4803 78.072 11.4803C77.7199 11.4803 77.4627 11.5477 77.2866 11.696C77.1106 11.8443 77.0294 12.0195 77.0294 12.2352C77.0294 12.3835 77.0971 12.5317 77.246 12.6531C77.3814 12.7744 77.7199 12.8957 78.248 13.0035C79.548 13.2866 80.4823 13.5697 81.051 13.8528C81.6198 14.1358 82.026 14.4998 82.2833 14.9177C82.5406 15.3355 82.6624 15.8208 82.6624 16.3465C82.6624 16.9666 82.4864 17.5327 82.1479 18.045C81.8093 18.5707 81.3219 18.9616 80.7125 19.2312C80.1032 19.5008 79.3178 19.6356 78.3835 19.6356C76.745 19.6356 75.6075 19.3255 74.9711 18.692C74.3482 18.0584 73.9962 17.2631 73.9014 16.2926Z" fill="#225E63"/>
<path d="M83.4209 16.2926L86.2645 16.1174C86.3322 16.5757 86.4541 16.9261 86.6437 17.1688C86.9551 17.5597 87.3884 17.7484 87.9571 17.7484C88.3769 17.7484 88.7154 17.654 88.9456 17.4519C89.1758 17.2497 89.2977 17.0205 89.2977 16.7644C89.2977 16.5217 89.1894 16.2926 88.9727 16.0904C88.7561 15.8882 88.2415 15.713 87.4426 15.5377C86.1291 15.2412 85.2083 14.8503 84.6396 14.365C84.0844 13.8797 83.8 13.2596 83.8 12.5048C83.8 12.006 83.949 11.5477 84.2334 11.1029C84.5177 10.658 84.951 10.321 85.5333 10.0649C86.1156 9.80882 86.9009 9.6875 87.903 9.6875C89.1352 9.6875 90.0831 9.91666 90.7195 10.375C91.3695 10.8333 91.7486 11.5612 91.8705 12.5587L89.054 12.7205C88.9727 12.2891 88.8238 11.9791 88.58 11.7769C88.3363 11.5747 88.0113 11.4803 87.5915 11.4803C87.2395 11.4803 86.9822 11.5477 86.8062 11.696C86.6301 11.8443 86.5489 12.0195 86.5489 12.2352C86.5489 12.3835 86.6166 12.5317 86.7655 12.6531C86.9009 12.7744 87.2395 12.8957 87.7676 13.0035C89.0675 13.2866 90.0018 13.5697 90.5706 13.8528C91.1393 14.1358 91.5455 14.4998 91.8028 14.9177C92.0601 15.3355 92.182 15.8208 92.182 16.3465C92.182 16.9666 92.0059 17.5327 91.6674 18.045C91.3289 18.5707 90.8414 18.9616 90.232 19.2312C89.6227 19.5008 88.8373 19.6356 87.903 19.6356C86.2645 19.6356 85.1271 19.3255 84.4906 18.692C83.8542 18.0584 83.5021 17.2631 83.4209 16.2926Z" fill="#225E63"/>
</svg>
