<svg width="80" height="40" viewBox="0 0 80 40" fill="none" xmlns="http://www.w3.org/2000/svg">
<path d="M65.4526 10.7178H53.1156C53.8343 14.7902 57.7869 18.6231 62.0989 18.6231H71.9206C72.0404 18.2637 72.0403 17.6648 72.0403 17.3055C72.0403 13.7122 69.0459 10.7178 65.4526 10.7178Z" fill="url(#paint0_linear_20112_773)"/>
<path d="M54.1932 19.3415V29.2829H60.1821V24.0128H65.4523C68.3269 24.0128 70.8422 21.9766 71.6807 19.3415H54.1932Z" fill="#4FAD50"/>
<path d="M33.113 10.7178V29.1634H38.3832C38.3832 29.1634 39.7007 29.1634 40.4194 27.8459C44.0127 20.779 45.0907 18.6231 45.0907 18.6231H45.8094V29.1634H51.7982V10.7178H46.528C46.528 10.7178 45.2105 10.8376 44.4918 12.0353C41.4974 18.1439 39.8205 21.2581 39.8205 21.2581H39.1018V10.7178H33.113Z" fill="#4FAD50"/>
<path d="M7.95947 29.1634V10.7178H13.9483C13.9483 10.7178 15.6252 10.7178 16.5834 13.3529C18.979 20.2999 19.2185 21.2581 19.2185 21.2581C19.2185 21.2581 19.6976 19.5813 21.8536 13.3529C22.8118 10.7178 24.4887 10.7178 24.4887 10.7178H30.4776V29.1634H24.4887V19.2219H23.77L20.4163 29.1634H17.7812L14.4275 19.2219H13.7088V29.1634H7.95947Z" fill="#4FAD50"/>
<defs>
<linearGradient id="paint0_linear_20112_773" x1="7.88728" y1="20.1334" x2="71.8968" y2="20.1334" gradientUnits="userSpaceOnUse">
<stop stop-color="#27B1E6"/>
<stop offset="1" stop-color="#148ACA"/>
</linearGradient>
</defs>
</svg>
