<svg width="80" height="80" viewBox="0 0 80 80" fill="none" xmlns="http://www.w3.org/2000/svg">
  <path d="M73.3332 40.0003C73.3332 58.4098 58.4093 73.3337 39.9998 73.3337C21.5903 73.3337 6.6665 58.4098 6.6665 40.0003C6.6665 21.5908 21.5903 6.66699 39.9998 6.66699C58.4093 6.66699 73.3332 21.5908 73.3332 40.0003Z" fill="#E9F8F1" />
  <path d="M53.3332 33.3337L36.121 48.9811C35.4853 49.559 34.5144 49.559 33.8787 48.9811L26.6665 42.4246M73.3332 40.0003C73.3332 58.4098 58.4093 73.3337 39.9998 73.3337C21.5903 73.3337 6.6665 58.4098 6.6665 40.0003C6.6665 21.5908 21.5903 6.66699 39.9998 6.66699C58.4093 6.66699 73.3332 21.5908 73.3332 40.0003Z" stroke="#27B973" stroke-width="1.67" stroke-linecap="round" />
</svg>