<svg width="80" height="80" viewBox="0 0 80 80" fill="none" xmlns="http://www.w3.org/2000/svg">
  <path d="M73.3337 40.0003C73.3337 58.4098 58.4098 73.3337 40.0003 73.3337C21.5908 73.3337 6.66699 58.4098 6.66699 40.0003C6.66699 21.5908 21.5908 6.66699 40.0003 6.66699C58.4098 6.66699 73.3337 21.5908 73.3337 40.0003Z" fill="#FFEFEE" />
  <path d="M50.0003 30.0003L40.0003 40.0003M40.0003 40.0003L30.0003 50.0003M40.0003 40.0003L50.0003 50.0003M40.0003 40.0003L30.0003 30.0003M73.3337 40.0003C73.3337 58.4098 58.4098 73.3337 40.0003 73.3337C21.5908 73.3337 6.66699 58.4098 6.66699 40.0003C6.66699 21.5908 21.5908 6.66699 40.0003 6.66699C58.4098 6.66699 73.3337 21.5908 73.3337 40.0003Z" stroke="#E33B32" stroke-width="2" stroke-linecap="round" />
</svg>